# xmcd
#
# Track frame offsets:
#	150
#	15254
#	33919
#	51509
#	67013
#	88013
#	101572
#	125673
#	139593
#	156624
#	173070
#	190705
#
# Disc length: 2797 seconds
#
# Revision: 1
# Processed by: cddbd v1.5.1PL0 Copyright (c) Steve Scherf et al.
# Submitted via: audiograbber 1.82.02
#
DISCID=a10aeb0c
DTITLE=Norwegian Gospel Voices - Let's Dance
DYEAR=2002
DGENRE=Gospel
TTITLE0=Never Seen the Righteous
TTITLE1=Get On Up
TTITLE2=I'll Be Good
TTITLE3=Joyful Noise
TTITLE4=Good Times
TTITLE5=Let's Dance
TTITLE6=He's a Keepa'
TTITLE7=Bustin' Loose
TTITLE8=Keep on Believing
TTITLE9=Le Freak
TTITLE10=I've Got the Best
TTITLE11=Let's Dance (Remix)
EXTD=
EXTT0=
EXTT1=
EXTT2=
EXTT3=
EXTT4=
EXTT5=
EXTT6=
EXTT7=
EXTT8=
EXTT9=
EXTT10=
EXTT11=
PLAYORDER=
